<svg width="5" height="4" viewBox="0 0 5 4" fill="none" xmlns="http://www.w3.org/2000/svg">
<path d="M3.14221 0.523701C3.14221 0.234967 2.90724 0 2.61851 0H0.523701C0.234967 0 0 0.234967 0 0.523701V0.937425L1.0474 2.15939V2.88036L2.0948 3.66591V2.15939L3.14221 0.937425V0.523701ZM2.79307 0.808245L1.74567 2.03021V2.96764L1.39654 2.70579V2.03021L0.349134 0.808245V0.523701C0.349134 0.427515 0.427515 0.349134 0.523701 0.349134H2.61851C2.71469 0.349134 2.79307 0.427515 2.79307 0.523701V0.808245ZM2.44394 2.96764H4.18961V3.31677H2.44394V2.96764ZM2.44394 2.26937H4.18961V2.61851H2.44394V2.26937ZM4.18961 1.5711V1.92024H2.75956L3.05876 1.5711H4.18961Z" fill="black"/>
</svg>
