<svg width="13" height="13" viewBox="0 0 13 13" fill="none" xmlns="http://www.w3.org/2000/svg">
<path d="M1.8786 11.7913C1.67766 12.0366 1.37728 12.1788 1.06019 12.1788C0.159348 12.1788 -0.329341 11.1248 0.25273 10.4373L2.6762 7.57467C3.48818 6.61556 3.49451 5.21197 2.69122 4.24558L0.589624 1.71729C0.0222417 1.03471 0.507657 0 1.39526 0C1.7125 0 2.01265 0.143753 2.21151 0.39093L5.54346 4.53246C5.75936 4.80925 5.85532 5.01685 5.87931 5.22444C5.87931 5.32824 5.92729 5.39743 6.07123 5.39743C6.21517 5.39743 6.26315 5.32824 6.26315 5.22444C6.28714 5.01685 6.3831 4.80925 6.59901 4.53246L9.93095 0.39093C10.1298 0.143753 10.43 0 10.7472 0C11.6348 0 12.1202 1.03471 11.5528 1.71729L9.45125 4.24558C8.64795 5.21197 8.65428 6.61556 9.46626 7.57466L11.8897 10.4373C12.4718 11.1248 11.9831 12.1788 11.0823 12.1788C10.7652 12.1788 10.4648 12.0366 10.2639 11.7913L6.59901 7.31768C6.40709 7.07548 6.31113 6.86789 6.26315 6.6257C6.23916 6.5219 6.21517 6.47 6.07123 6.47C5.92729 6.47 5.9033 6.5219 5.87931 6.6257C5.83133 6.86789 5.73537 7.07548 5.54346 7.31768L1.8786 11.7913Z" fill="black"/>
</svg>
